<?xml version="1.0" encoding="UTF-8"?>
<svg width="620px" height="620px" viewBox="0 0 620 620" version="1.1" xmlns="http://www.w3.org/2000/svg" xmlns:xlink="http://www.w3.org/1999/xlink">
    <!-- Generator: Sketch 52.3 (67297) - http://www.bohemiancoding.com/sketch -->
    <title>Slice 1</title>
    <desc>Created with Sketch.</desc>
    <g id="Page-1" stroke="none" stroke-width="1" fill="none" fill-rule="evenodd">
        <g id="youneedabudget-icon">
            <path d="M305.986154,336.640625 C305.986154,336.640625 268.864615,314.940625 282.046154,284.134375 C289.733112,270.411269 298.689148,257.437946 308.796923,245.384375 C308.796923,245.384375 332.736923,269.796875 336.807692,284.134375 C336.807692,284.134375 349.504615,314.940625 315.969231,336.640625 L309.184615,295.953125 L305.986154,336.640625 Z" id="path8" fill="#71C0E5"></path>
            <path d="M454.278462,417.14375 C454.278462,417.14375 489.170769,417.14375 492.466154,444.26875 C492.606514,457.023674 491.60094,469.765441 489.461538,482.340625 C476.817155,479.105005 464.819577,473.731707 453.987692,466.453125 C440.950882,455.057727 438.117301,435.889238 447.3,421.2125 L468.623077,446.98125 L454.278462,417.14375 Z" id="path10" fill="#71C0E5"></path>
            <path d="M174.461538,419.953125 C174.461538,419.953125 189.193846,453.859375 164.769231,468.390625 C152.2861,474.056629 139.308461,478.564122 126,481.85625 C126,481.85625 121.735385,452.79375 126,440.684375 C131.475609,423.193367 148.854108,412.270465 166.998462,414.915625 L151.684615,446.59375 L174.461538,419.953125 Z" id="path12" fill="#71C0E5"></path>
            <path d="M524.838462,299.634375 C524.838462,299.634375 543.350769,260.884375 575.141538,271.25 C589.531257,277.710374 603.288916,285.493866 616.236923,294.5 C616.236923,294.5 593.944615,320.559375 579.793846,325.790625 C579.793846,325.790625 550.716923,341.096875 525.710769,309.515625 L565.74,299.34375 L524.838462,299.634375 Z" id="path14" fill="#71C0E5"></path>
            <path d="M95.1784615,307.48125 C95.1784615,307.48125 70.8507692,342.9375 41.0953846,327.728125 C27.8941654,319.187725 15.5011286,309.459801 4.07076923,298.665625 C4.07076923,298.665625 30.1430769,276.384375 44.8753846,273.284375 C44.8753846,273.284375 76.4723077,262.821875 95.8569231,297.696875 L54.6646154,301.66875 L95.1784615,307.48125 Z" id="path16" fill="#71C0E5"></path>
            <path d="M232.615385,146.66875 C232.615385,146.66875 184.638462,139.596875 185.898462,102.203125 C188.348346,84.7434473 192.437151,67.5530357 198.110769,50.859375 C198.110769,50.859375 232.615385,66.165625 243.18,79.4375 C243.18,79.4375 269.155385,106.078125 242.695385,142.503125 L218.852308,103.171875 L232.615385,146.66875 Z" id="path18" fill="#71C0E5"></path>
            <path d="M146.838462,166.915625 C146.838462,166.915625 101.187692,169.14375 95.5661538,134.4625 C94.6692015,117.843099 95.2855838,101.176607 97.4076923,84.66875 C97.4076923,84.66875 132.881538,92.41875 144.706154,102.88125 C144.706154,102.88125 173.783077,122.740625 155.755385,161.00625 L126.678462,128.940625 L146.838462,166.915625 Z" id="path20" fill="#71C0E5"></path>
            <path d="M384.106154,143.278125 C384.106154,143.278125 353.575385,105.59375 379.744615,78.953125 C393.411255,67.7553105 408.075625,57.8325858 423.553846,49.309375 C423.553846,49.309375 439.158462,84.475 437.704615,101.234375 C437.704615,101.234375 438.770769,138.3375 394.670769,147.346875 L403.781538,102.203125 L384.106154,143.278125 Z" id="path22" fill="#71C0E5"></path>
            <path d="M305.501538,115.378125 C305.501538,115.378125 257.815385,88.059375 274.486154,49.2125 C284.3137,31.790568 295.734803,15.3160164 308.603077,0 C308.603077,0 339.230769,30.709375 344.852308,49.01875 C344.852308,49.01875 361.232308,87.76875 318.295385,115.28125 L309.378462,63.9375 L305.501538,115.378125 Z" id="path24" fill="#71C0E5"></path>
            <path d="M467.363077,159.2625 C467.363077,159.2625 447.978462,119.834375 476.473846,101.1375 C490.805509,94.1298503 505.765346,88.4862049 521.155385,84.28125 C521.155385,84.28125 527.843077,118.478125 523.190769,132.71875 C523.190769,132.71875 516.696923,165.753125 475.892308,164.784375 L493.047692,126.809375 L467.363077,159.2625 Z" id="path26" fill="#71C0E5"></path>
            <path d="M305.986154,226.009375 C305.986154,226.009375 268.864615,204.309375 282.046154,173.503125 C289.752589,159.792158 298.707414,146.820587 308.796923,134.753125 C308.796923,134.753125 332.736923,159.165625 336.807692,173.503125 C336.807692,173.503125 349.504615,204.309375 315.969231,226.009375 L309.184615,185.225 L305.986154,226.009375 Z" id="path28" fill="#71C0E5"></path>
            <path d="M237.946154,261.5625 C237.946154,261.5625 180.955385,263.8875 173.589231,220.196875 C172.318794,199.318589 173.000209,178.367362 175.624615,157.615625 C175.624615,157.615625 219.821538,167.7875 234.747692,180.9625 C234.747692,180.9625 270.9,206.246875 249.092308,254.490625 L212.358462,214.09375 L237.946154,261.5625 Z" id="path30" fill="#71C0E5"></path>
            <path d="M133.850769,246.353125 C133.850769,246.353125 83.9353846,274.059375 58.1538462,238.3125 C47.582138,220.255628 38.7235485,201.249919 31.6938462,181.54375 C31.6938462,181.54375 75.7938462,170.69375 95.0815385,175.828125 C95.0815385,175.828125 138.793846,182.125 140.926154,235.01875 L89.8476923,215.64375 L133.850769,246.353125 Z" id="path32" fill="#71C0E5"></path>
            <path d="M371.506154,255.55625 C371.506154,255.55625 348.923077,203.4375 386.723077,180.575 C405.75088,171.811968 425.541096,164.807761 445.846154,159.65 C445.846154,159.65 452.533846,204.503125 445.846154,223.2 C445.846154,223.2 435.378462,266.115625 382.555385,263.30625 L407.076923,214.384375 L371.506154,255.55625 Z" id="path34" fill="#71C0E5"></path>
            <path d="M477.830769,232.984375 C477.830769,232.984375 482.192308,176.215625 526.292308,173.9875 C547.178447,175.122442 567.913,178.203514 588.226154,183.190625 C588.226154,183.190625 573.009231,225.9125 558.083077,239.184375 C558.083077,239.184375 529.006154,272.21875 483.452308,244.9 L528.230769,213.125 L477.830769,232.984375 Z" id="path36" fill="#71C0E5"></path>
            <path d="M475.989231,366.865625 C475.989231,366.865625 513.110769,323.5625 550.135385,347.975 C566.282312,361.276681 581.173977,376.031249 594.623077,392.053125 C594.623077,392.053125 557.016923,417.53125 537.147692,419.371875 C537.147692,419.371875 494.016923,429.059375 473.566154,379.846875 L528.327692,380.621875 L475.989231,366.865625 Z" id="path38" fill="#71C0E5"></path>
            <path d="M144.415385,380.1375 C144.415385,380.1375 122.801538,432.934375 79.9615385,421.40625 C60.4693354,413.886232 41.7154742,404.578812 23.94,393.603125 C23.94,393.603125 51.5630769,357.565625 69.7846154,349.525 C69.7846154,349.525 107.875385,327.146875 142.573846,367.059375 L90.3323077,383.625 L144.415385,380.1375 Z" id="path40" fill="#71C0E5"></path>
            <g id="path42" transform="translate(4.070769, 0.000000)"></g>
            <polygon id="polygon44" fill="#71C0E5" points="384.590769 286.653125 502.061538 286.653125 364.721538 492.415625 364.721538 620 256.070769 620 256.070769 491.7375 119.7 286.653125 239.884615 286.653125 309.378462 406.778125"></polygon>
        </g>
    </g>
</svg>